<svg width="40" height="41" viewBox="0 0 40 41" fill="none" xmlns="http://www.w3.org/2000/svg">
<path d="M23.9 39.8C23.4 40.0667 22.892 40.1087 22.376 39.926C21.86 39.7433 21.468 39.4013 21.2 38.9L18.2 32.9C17.9333 32.4 17.892 31.892 18.076 31.376C18.26 30.86 18.6013 30.468 19.1 30.2C19.6 29.9333 20.1087 29.892 20.626 30.076C21.1433 30.26 21.5347 30.6013 21.8 31.1L24.8 37.1C25.0667 37.6 25.1087 38.1087 24.926 38.626C24.7433 39.1433 24.4013 39.5347 23.9 39.8ZM35.9 39.8C35.4 40.0667 34.892 40.1087 34.376 39.926C33.86 39.7433 33.468 39.4013 33.2 38.9L30.2 32.9C29.9333 32.4 29.892 31.892 30.076 31.376C30.26 30.86 30.6013 30.468 31.1 30.2C31.6 29.9333 32.1087 29.892 32.626 30.076C33.1433 30.26 33.5347 30.6013 33.8 31.1L36.8 37.1C37.0667 37.6 37.1087 38.1087 36.926 38.626C36.7433 39.1433 36.4013 39.5347 35.9 39.8ZM11.9 39.8C11.4 40.0667 10.892 40.1087 10.376 39.926C9.86 39.7433 9.468 39.4013 9.2 38.9L6.2 32.9C5.93333 32.4 5.892 31.892 6.076 31.376C6.26 30.86 6.60133 30.468 7.1 30.2C7.6 29.9333 8.10867 29.892 8.626 30.076C9.14333 30.26 9.53467 30.6013 9.8 31.1L12.8 37.1C13.0667 37.6 13.1087 38.1087 12.926 38.626C12.7433 39.1433 12.4013 39.5347 11.9 39.8ZM11 28C7.96667 28 5.37533 26.9253 3.226 24.776C1.07667 22.6267 0.00133333 20.0347 0 17C0 14.2333 0.916667 11.8167 2.75 9.75C4.58333 7.68334 6.85 6.46667 9.55 6.1C10.6167 4.2 12.0753 2.708 13.926 1.624C15.7767 0.540003 17.8013 -0.00133088 20 2.457e-06C23 2.457e-06 25.6087 0.958669 27.826 2.876C30.0433 4.79334 31.3847 7.18467 31.85 10.05C34.15 10.25 36.0833 11.2 37.65 12.9C39.2167 14.6 40 16.6333 40 19C40 21.5 39.1253 23.6253 37.376 25.376C35.6267 27.1267 33.5013 28.0013 31 28H11ZM11 24H31C32.4 24 33.5833 23.5167 34.55 22.55C35.5167 21.5833 36 20.4 36 19C36 17.6 35.5167 16.4167 34.55 15.45C33.5833 14.4833 32.4 14 31 14H28V12C28 9.8 27.2167 7.91667 25.65 6.35C24.0833 4.78334 22.2 4 20 4C18.4 4 16.942 4.43334 15.626 5.3C14.31 6.16667 13.318 7.33334 12.65 8.8L12.15 10H10.9C9 10.0667 7.37533 10.7753 6.026 12.126C4.67667 13.4767 4.00133 15.1013 4 17C4 18.9333 4.68333 20.5833 6.05 21.95C7.41667 23.3167 9.06667 24 11 24Z" fill="white"/>
</svg>
