<svg width="44" height="44" viewBox="0 0 44 44" fill="none" xmlns="http://www.w3.org/2000/svg">
<path d="M20 8V0H24V8H20ZM33.3 13.5L30.55 10.75L36.15 5L38.95 7.85L33.3 13.5ZM36 24V20H44V24H36ZM20 44V36H24V44H20ZM10.7 13.4L5 7.85L7.85 5.05L13.5 10.7L10.7 13.4ZM36.1 39L30.55 33.25L33.25 30.55L38.95 36.05L36.1 39ZM0 24V20H8V24H0ZM7.85 39L5.05 36.15L10.65 30.55L12.1 31.9L13.55 33.3L7.85 39ZM22 34C18.6667 34 15.8333 32.8333 13.5 30.5C11.1667 28.1667 10 25.3333 10 22C10 18.6667 11.1667 15.8333 13.5 13.5C15.8333 11.1667 18.6667 10 22 10C25.3333 10 28.1667 11.1667 30.5 13.5C32.8333 15.8333 34 18.6667 34 22C34 25.3333 32.8333 28.1667 30.5 30.5C28.1667 32.8333 25.3333 34 22 34ZM22 30C24.2 30 26.0833 29.2167 27.65 27.65C29.2167 26.0833 30 24.2 30 22C30 19.8 29.2167 17.9167 27.65 16.35C26.0833 14.7833 24.2 14 22 14C19.8 14 17.9167 14.7833 16.35 16.35C14.7833 17.9167 14 19.8 14 22C14 24.2 14.7833 26.0833 16.35 27.65C17.9167 29.2167 19.8 30 22 30Z" fill="white"/>
</svg>
