<svg width="48" height="42" viewBox="0 0 48 42" fill="none" xmlns="http://www.w3.org/2000/svg">
<path d="M41.2734 24.2812C42.2734 24.5625 43.1797 24.9766 43.9922 25.5234C44.8047 26.0703 45.5156 26.7266 46.125 27.4922C46.7344 28.2578 47.1953 29.1094 47.5078 30.0469C47.8203 30.9844 47.9844 31.9688 48 33C48 34.25 47.7656 35.4141 47.2969 36.4922C46.8281 37.5703 46.1875 38.5234 45.375 39.3516C44.5625 40.1797 43.6016 40.8281 42.4922 41.2969C41.3828 41.7656 40.2188 42 39 42H13.5C12.0469 42 10.6875 41.7266 9.42188 41.1797C8.15625 40.6328 7.03906 39.8828 6.07031 38.9297C5.10156 37.9766 4.35156 36.8672 3.82031 35.6016C3.28906 34.3359 3.01562 32.9688 3 31.5C3 30.4688 3.14844 29.4688 3.44531 28.5C3.74219 27.5312 4.16406 26.6172 4.71094 25.7578C5.25781 24.8984 5.91406 24.1484 6.67969 23.5078C7.44531 22.8672 8.3125 22.3281 9.28125 21.8906C9.09375 21.125 9 20.3281 9 19.5C9 18.0469 9.27344 16.6875 9.82031 15.4219C10.3672 14.1562 11.1172 13.0391 12.0703 12.0703C13.0234 11.1016 14.1328 10.3516 15.3984 9.82031C16.6641 9.28906 18.0312 9.01562 19.5 9C20.5 9 21.4766 9.14062 22.4297 9.42188C23.3828 9.70312 24.2656 10.1016 25.0781 10.6172C25.8906 11.1328 26.6328 11.7656 27.3047 12.5156C27.9766 13.2656 28.5234 14.0938 28.9453 15C30.3516 15.0469 31.7031 15.3047 33 15.7734C34.2969 16.2422 35.4844 16.8828 36.5625 17.6953C37.6406 18.5078 38.5938 19.4766 39.4219 20.6016C40.25 21.7266 40.8672 22.9531 41.2734 24.2812ZM19.5 12C18.4688 12 17.5 12.1953 16.5938 12.5859C15.6875 12.9766 14.8906 13.5156 14.2031 14.2031C13.5156 14.8906 12.9766 15.6875 12.5859 16.5938C12.1953 17.5 12 18.4688 12 19.5C12 19.7656 12.0078 20.0234 12.0234 20.2734C12.0391 20.5234 12.0938 20.7891 12.1875 21.0703C12.625 21.0234 13.0625 21 13.5 21C14.0938 21 14.6797 21.0469 15.2578 21.1406C15.8359 21.2344 16.3984 21.3828 16.9453 21.5859C17.3984 20.7891 17.9375 20.0547 18.5625 19.3828C19.1875 18.7109 19.8828 18.1016 20.6484 17.5547C21.4141 17.0078 22.2109 16.5469 23.0391 16.1719C23.8672 15.7969 24.7422 15.5078 25.6641 15.3047C24.9766 14.2734 24.0859 13.4688 22.9922 12.8906C21.8984 12.3125 20.7344 12.0156 19.5 12ZM39 39C39.8281 39 40.6016 38.8438 41.3203 38.5312C42.0391 38.2188 42.6797 37.7891 43.2422 37.2422C43.8047 36.6953 44.2344 36.0625 44.5312 35.3438C44.8281 34.625 44.9844 33.8438 45 33C45 32.1406 44.8438 31.3438 44.5312 30.6094C44.2188 29.875 43.7734 29.2422 43.1953 28.7109C42.6172 28.1797 41.9609 27.7656 41.2266 27.4688C40.4922 27.1719 39.6953 27.0156 38.8359 27C38.6484 25.7188 38.25 24.5312 37.6406 23.4375C37.0312 22.3438 36.2734 21.3906 35.3672 20.5781C34.4609 19.7656 33.4141 19.1328 32.2266 18.6797C31.0391 18.2266 29.7969 18 28.5 18C27.2969 18 26.1562 18.1953 25.0781 18.5859C24 18.9766 23.0078 19.5156 22.1016 20.2031C21.1953 20.8906 20.4297 21.7188 19.8047 22.6875C19.1797 23.6562 18.7031 24.7109 18.375 25.8516C17.6875 25.2578 16.9297 24.8047 16.1016 24.4922C15.2734 24.1797 14.4062 24.0156 13.5 24C12.4688 24 11.5 24.1953 10.5938 24.5859C9.6875 24.9766 8.89062 25.5078 8.20312 26.1797C7.51562 26.8516 6.97656 27.6484 6.58594 28.5703C6.19531 29.4922 6 30.4688 6 31.5C6 32.5312 6.19531 33.5 6.58594 34.4062C6.97656 35.3125 7.50781 36.1094 8.17969 36.7969C8.85156 37.4844 9.64844 38.0234 10.5703 38.4141C11.4922 38.8047 12.4688 39 13.5 39H39ZM6 21H0V18H6V21ZM8.88281 11.0156L4.64062 6.77344L6.77344 4.64062L11.0156 8.88281L8.88281 11.0156ZM21 6H18V0H21V6ZM30.1172 11.0156L27.9844 8.88281L32.2266 4.64062L34.3594 6.77344L30.1172 11.0156Z" fill="white"/>
</svg>
