<svg width="44" height="36" viewBox="0 0 44 36" fill="none" xmlns="http://www.w3.org/2000/svg">
<path d="M16.828 6.01C17.604 4.22341 18.8849 2.70234 20.5133 1.63358C22.1418 0.564831 24.0469 -0.00507048 25.9947 -0.00613255C27.9426 -0.00719462 29.8483 0.560629 31.4779 1.6276C33.1075 2.69458 34.3901 4.21425 35.168 6C37.5257 6.04402 39.772 7.01162 41.4236 8.69471C43.0753 10.3778 44.0004 12.6419 44 15C44 17.432 42.766 19.66 41.226 21.226C40.2692 22.2112 39.1183 22.9869 37.846 23.504C37.946 24.098 38 24.71 38 25.334C38 31.188 33.336 36 27.5 36H8.8C3.904 36 -1.60759e-07 31.964 -1.60759e-07 27.066C-0.00626526 25.368 0.471186 23.7033 1.37649 22.2667C2.28179 20.8301 3.57749 19.6811 5.112 18.954C5.104 18.7694 5.1 18.5847 5.1 18.4C5.1 11.748 10.276 6.26 16.828 6.01ZM21.056 6.598C24.846 7.842 27.808 10.914 28.968 14.77C30.5061 14.9949 31.975 15.5587 33.2686 16.4206C34.5622 17.2826 35.6482 18.4211 36.448 19.754C37.173 19.443 37.828 18.9894 38.374 18.42C39.41 17.366 40 16.094 40 15C40.0002 14.2689 39.8402 13.5466 39.531 12.8841C39.2219 12.2216 38.7712 11.6349 38.2108 11.1654C37.6503 10.696 36.9938 10.3551 36.2873 10.1669C35.5809 9.97863 34.8417 9.94762 34.122 10.076L32.274 10.402L31.832 8.578C31.5569 7.45325 30.9624 6.43206 30.1201 5.63746C29.2779 4.84286 28.2238 4.30876 27.085 4.0995C25.9461 3.89025 24.7711 4.01477 23.7014 4.45807C22.6317 4.90137 21.713 5.64452 21.056 6.598ZM17.3 10C12.808 10 9.1 13.724 9.1 18.4C9.1 18.932 9.148 19.45 9.24 19.952L9.58 21.822L7.728 22.256C5.616 22.75 4 24.696 4 27.066C4 29.828 6.186 32 8.8 32H27.5C31.054 32 34 29.052 34 25.334C34 24.414 33.82 23.546 33.498 22.758C32.506 20.334 30.178 18.666 27.5 18.666H27.392L25.666 18.696L25.386 16.992C24.77 13.248 21.746 10.38 18.056 10.036C17.8047 10.0123 17.5524 10.0003 17.3 10Z" fill="white"/>
</svg>
