<svg width="44" height="38" viewBox="0 0 44 38" fill="none" xmlns="http://www.w3.org/2000/svg">
<path d="M1.16799 22.014C0.392143 20.0608 0.00859179 17.974 0.0392384 15.8726C0.069885 13.7712 0.514129 11.6965 1.34661 9.76678C2.17908 7.83709 3.38349 6.09026 4.89106 4.62603C6.39863 3.1618 8.17984 2.00884 10.133 1.233C12.0861 0.457145 14.173 0.0735942 16.2744 0.104241C18.3757 0.134887 20.4505 0.579132 22.3802 1.41161C24.3099 2.24409 26.0567 3.44849 27.521 4.95606C28.9852 6.46363 30.1381 8.24484 30.914 10.198C32.5903 9.87407 34.319 9.94479 35.9632 10.4045C37.6074 10.8643 39.122 11.7005 40.3872 12.8469C41.6523 13.9933 42.6333 15.4184 43.2524 17.0095C43.8714 18.6006 44.1117 20.314 43.954 22.014H39.928C40.1428 20.5518 39.8893 19.059 39.2038 17.7497C38.5182 16.4404 37.4359 15.3816 36.1118 14.7251C34.7877 14.0686 33.2897 13.8481 31.8326 14.095C30.3754 14.342 29.0338 15.0438 28 16.1V16C27.9995 14.1589 27.5754 12.3427 26.7606 10.6918C25.9457 9.04088 24.7619 7.59962 23.3008 6.47952C21.8397 5.35942 20.1404 4.59054 18.3345 4.23237C16.5287 3.8742 14.6646 3.93635 12.8866 4.41401C11.1086 4.89167 9.46432 5.77204 8.08105 6.98697C6.69779 8.2019 5.61262 9.71882 4.90953 11.4203C4.20644 13.1218 3.90428 14.9623 4.02644 16.7993C4.14859 18.6363 4.69179 20.4206 5.61399 22.014H1.16799ZM5.99999 34H40V38H5.99999V34ZM1.99999 26H44V30H1.99999V26Z" fill="white"/>
</svg>
