<svg width="44" height="42" viewBox="0 0 44 42" fill="none" xmlns="http://www.w3.org/2000/svg">
<path d="M6.00001 25.798C4.51409 24.2798 3.39314 22.4434 2.72208 20.4279C2.05101 18.4123 1.84742 16.2705 2.12673 14.1646C2.40604 12.0587 3.16092 10.044 4.3342 8.27308C5.50747 6.50215 7.06837 5.02144 8.89867 3.94311C10.729 2.86478 12.7807 2.21712 14.8983 2.04917C17.016 1.88121 19.1442 2.19739 21.1215 2.97373C23.0989 3.75007 24.8737 4.96623 26.3115 6.53008C27.7492 8.09394 28.8122 9.96447 29.42 12H33C34.931 11.9998 36.8109 12.6207 38.362 13.7709C39.9131 14.9211 41.053 16.5397 41.6135 18.3876C42.1741 20.2355 42.1254 22.2147 41.4747 24.0328C40.824 25.8508 39.6058 27.4114 38 28.484M14 34V36M14 24V26M30 34V36M30 24V26M22 38V40M22 28V30" stroke="white" stroke-width="4" stroke-linecap="round" stroke-linejoin="round"/>
</svg>
