<svg width="41" height="36" viewBox="0 0 41 36" fill="none" xmlns="http://www.w3.org/2000/svg">
<path d="M24 24H19.46L22.36 19C22.4913 18.7715 22.5763 18.5194 22.6102 18.258C22.6441 17.9967 22.6262 17.7312 22.5575 17.4767C22.4888 17.2223 22.3706 16.9839 22.2097 16.7751C22.0489 16.5664 21.8485 16.3913 21.62 16.26C21.3915 16.1287 21.1394 16.0437 20.878 16.0098C20.6166 15.9759 20.3512 15.9938 20.0967 16.0625C19.8423 16.1312 19.6039 16.2494 19.3951 16.4103C19.1864 16.5711 19.0113 16.7715 18.88 17L14.26 25C14.0845 25.304 13.992 25.6489 13.992 26C13.992 26.3511 14.0845 26.696 14.26 27C14.4362 27.3052 14.6899 27.5584 14.9955 27.734C15.301 27.9097 15.6476 28.0014 16 28H20.54L17.64 33C17.3748 33.4615 17.3037 34.0094 17.4425 34.5233C17.5813 35.0371 17.9185 35.4748 18.38 35.74C18.8415 36.0052 19.3894 36.0763 19.9033 35.9375C20.4171 35.7987 20.8548 35.4615 21.12 35L25.74 27C25.9155 26.696 26.0079 26.3511 26.0079 26C26.0079 25.6489 25.9155 25.304 25.74 25C25.5638 24.6948 25.3101 24.4416 25.0045 24.266C24.6989 24.0904 24.3524 23.9986 24 24ZM33.84 8.42001C32.6166 5.61163 30.5059 3.282 27.8315 1.78832C25.157 0.294638 22.0665 -0.280652 19.0338 0.150653C16.001 0.581959 13.1934 1.99605 11.0414 4.17612C8.88946 6.35619 7.51191 9.1819 7.11999 12.22C5.21317 12.6767 3.54044 13.8177 2.41947 15.4264C1.2985 17.0351 0.807362 18.9995 1.03932 20.9464C1.27128 22.8934 2.21018 24.6874 3.67773 25.9877C5.14527 27.288 7.03925 28.0041 8.99999 28C9.53043 28 10.0391 27.7893 10.4142 27.4142C10.7893 27.0391 11 26.5304 11 26C11 25.4696 10.7893 24.9609 10.4142 24.5858C10.0391 24.2107 9.53043 24 8.99999 24C7.93913 24 6.92171 23.5786 6.17157 22.8284C5.42142 22.0783 4.99999 21.0609 4.99999 20C4.99999 18.9391 5.42142 17.9217 6.17157 17.1716C6.92171 16.4214 7.93913 16 8.99999 16C9.53043 16 10.0391 15.7893 10.4142 15.4142C10.7893 15.0391 11 14.5304 11 14C11.0051 11.6346 11.8486 9.34751 13.3805 7.54517C14.9125 5.74283 17.0338 4.54191 19.3675 4.15575C21.7012 3.7696 24.0963 4.22322 26.1271 5.43602C28.158 6.64883 29.6932 8.54229 30.46 10.78C30.5773 11.12 30.7841 11.422 31.0587 11.6543C31.3332 11.8866 31.6653 12.0406 32.02 12.1C33.486 12.3705 34.7988 13.1771 35.7026 14.3625C36.6065 15.548 37.0366 17.0275 36.9093 18.5128C36.782 19.9981 36.1064 21.3828 35.0139 22.3972C33.9215 23.4115 32.4906 23.9829 31 24C30.4696 24 29.9609 24.2107 29.5858 24.5858C29.2107 24.9609 29 25.4696 29 26C29 26.5304 29.2107 27.0391 29.5858 27.4142C29.9609 27.7893 30.4696 28 31 28C33.3987 27.9934 35.7151 27.1248 37.5268 25.5526C39.3384 23.9804 40.5246 21.8094 40.8689 19.4355C41.2132 17.0616 40.6927 14.643 39.4025 12.6209C38.1122 10.5988 36.138 9.10785 33.84 8.42001Z" fill="white"/>
</svg>
