<svg width="44" height="42" viewBox="0 0 44 42" fill="none" xmlns="http://www.w3.org/2000/svg">
<path d="M10 24C10.5304 24 11.0391 24.2107 11.4142 24.5858C11.7893 24.9609 12 25.4696 12 26C12 26.5304 11.7893 27.0391 11.4142 27.4142C11.0391 27.7893 10.5304 28 10 28C8.68678 28 7.38642 27.7413 6.17317 27.2388C4.95991 26.7362 3.85752 25.9997 2.92893 25.0711C1.05357 23.1957 0 20.6522 0 18C0 15.3478 1.05357 12.8043 2.92893 10.9289C4.8043 9.05357 7.34784 8 10 8C12 3.3 16.6 0 22 0C28.86 0 34.48 5.32 35 12.06L36 12C38.1217 12 40.1566 12.8429 41.6569 14.3431C43.1571 15.8434 44 17.8783 44 20C44 22.1217 43.1571 24.1566 41.6569 25.6569C40.1566 27.1571 38.1217 28 36 28H34C33.4696 28 32.9609 27.7893 32.5858 27.4142C32.2107 27.0391 32 26.5304 32 26C32 25.4696 32.2107 24.9609 32.5858 24.5858C32.9609 24.2107 33.4696 24 34 24H36C37.0609 24 38.0783 23.5786 38.8284 22.8284C39.5786 22.0783 40 21.0609 40 20C40 18.9391 39.5786 17.9217 38.8284 17.1716C38.0783 16.4214 37.0609 16 36 16H32V14C32 11.3478 30.9464 8.8043 29.0711 6.92893C27.1957 5.05357 24.6522 4 22 4C17 4 12.9 7.64 12.12 12.38C11.46 12.14 10.74 12 10 12C8.4087 12 6.88258 12.6321 5.75736 13.7574C4.63214 14.8826 4 16.4087 4 18C4 19.5913 4.63214 21.1174 5.75736 22.2426C6.88258 23.3679 8.4087 24 10 24ZM13.76 32.14L18.14 31L14.92 27.76C14.14 27 14.14 25.72 14.92 24.92C15.7 24.14 17 24.14 17.76 24.92L21 28.14L22.14 23.76C22.2009 23.4986 22.3138 23.2521 22.472 23.0352C22.6301 22.8184 22.8304 22.6356 23.0607 22.4977C23.291 22.3599 23.5467 22.2698 23.8125 22.2328C24.0784 22.1959 24.349 22.2128 24.6081 22.2827C24.8673 22.3525 25.1098 22.4738 25.3211 22.6393C25.5324 22.8048 25.7082 23.0112 25.8381 23.2461C25.968 23.481 26.0493 23.7396 26.0771 24.0066C26.1049 24.2735 26.0787 24.5434 26 24.8L24.82 29.18L29.2 28C29.4566 27.9213 29.7265 27.8951 29.9934 27.9229C30.2604 27.9507 30.519 28.032 30.7539 28.1619C30.9888 28.2918 31.1952 28.4676 31.3607 28.6789C31.5262 28.8902 31.6475 29.1327 31.7173 29.3919C31.7872 29.651 31.8041 29.9216 31.7672 30.1875C31.7302 30.4533 31.6401 30.709 31.5023 30.9393C31.3644 31.1696 31.1816 31.3699 30.9648 31.528C30.7479 31.6862 30.5014 31.7991 30.24 31.86L25.86 33L29.08 36.24C29.86 37 29.86 38.3 29.08 39.08C28.3 39.86 27 39.86 26.24 39.08L23 35.86L21.86 40.24C21.7991 40.5014 21.6862 40.7479 21.528 40.9648C21.3699 41.1816 21.1696 41.3644 20.9393 41.5023C20.709 41.6401 20.4533 41.7302 20.1875 41.7672C19.9216 41.8041 19.651 41.7872 19.3919 41.7173C19.1327 41.6475 18.8902 41.5262 18.6789 41.3607C18.4676 41.1952 18.2918 40.9888 18.1619 40.7539C18.032 40.519 17.9507 40.2604 17.9229 39.9934C17.8951 39.7265 17.9213 39.4566 18 39.2L19.18 34.82L14.8 36C14.5434 36.0787 14.2735 36.1049 14.0066 36.0771C13.7396 36.0493 13.481 35.968 13.2461 35.8381C13.0112 35.7082 12.8048 35.5324 12.6393 35.3211C12.4738 35.1098 12.3525 34.8673 12.2827 34.6081C12.2128 34.349 12.1959 34.0784 12.2328 33.8125C12.2698 33.5467 12.3599 33.291 12.4977 33.0607C12.6356 32.8304 12.8184 32.6301 13.0352 32.472C13.2521 32.3138 13.4986 32.2009 13.76 32.14Z" fill="white"/>
</svg>
