<svg width="136" height="111" viewBox="0 0 136 111" fill="none" xmlns="http://www.w3.org/2000/svg">
<path fill-rule="evenodd" clip-rule="evenodd" d="M0 1.62605C0 0.882712 0.605076 0.280119 1.35147 0.280119H7.09196C7.83836 0.280119 8.44345 0.882709 8.44345 1.62604V98.0868C8.44345 100.572 10.4665 102.587 12.9622 102.587H23.3044V1.62605C23.3044 0.882712 23.9095 0.280119 24.6559 0.280119H30.3963C31.1427 0.280119 31.7478 0.882712 31.7478 1.62605V110.996H11.2755C5.04822 110.996 0 105.968 0 99.7665V1.62605Z" fill="white"/>
<path d="M52.1771 110.996C45.9498 110.996 40.9017 105.969 40.9017 99.7668V0H65.1619C65.9082 0 66.5133 0.602592 66.5133 1.34593V7.06286C66.5133 7.80619 65.9082 8.40879 65.1619 8.40879H49.3451V43.5023H65.1621C65.9085 43.5023 66.5136 44.105 66.5136 44.8482V50.5653C66.5136 51.3085 65.9085 51.9112 65.1621 51.9112H49.3451V98.0871C49.3451 100.572 51.3682 102.587 53.8639 102.587H65.1619C65.9082 102.587 66.5133 103.19 66.5133 103.933V109.65C66.5133 110.393 65.9082 110.996 65.1619 110.996H52.1771Z" fill="white"/>
<path d="M85.9723 110.996C79.745 110.996 74.6966 105.968 74.6966 99.7668V0H98.9571C99.7034 0 100.308 0.602593 100.308 1.34593V7.06287C100.308 7.8062 99.7034 8.40878 98.9571 8.40878H83.14V43.5023H98.9571C99.7034 43.5023 100.308 44.105 100.308 44.8482V50.5653C100.308 51.3085 99.7034 51.9112 98.9571 51.9112H83.14V98.0871C83.14 100.572 85.1632 102.587 87.6588 102.587H98.9571C99.7034 102.587 100.308 103.19 100.308 103.933V109.65C100.308 110.393 99.7034 110.996 98.9571 110.996H85.9723Z" fill="white"/>
<path d="M127.556 47.4264L116.861 36.4652V1.34988C116.861 0.606549 116.256 0.00395666 115.51 0.00395666H109.769C109.023 0.00395666 108.418 0.606549 108.418 1.34988V109.654C108.418 110.397 109.023 111 109.769 111H115.51C116.256 111 116.861 110.397 116.861 109.654V48.7936L127.557 60.4809V109.654C127.557 110.397 128.162 111 128.908 111H134.648C135.395 111 136 110.397 136 109.654V61.237C136 57.5731 134.5 54.0674 131.846 51.5294L127.673 47.5382L136 39.246V1.3508C136 0.607467 135.395 0.00487493 134.648 0.00487493H128.908C128.161 0.00487493 127.556 0.607467 127.556 1.35081V47.4264Z" fill="white"/>
</svg>
